<svg version="1.1"
     width="400" height="400"
     viewBox="0 0 400 400"
     xmlns="http://www.w3.org/2000/svg"
>
    <path
        id="outline"
        d="
            M   0,200
            a 200,200  0  0 1  400,0
            a 200,200  0  0 1 -400,0
            m  18,0
            a 182,182  0  0 0  364,0
            a 182,182  0  0 0 -364,0
        "
        fill="#1eddff"
    />
    <path
        id="blue-m"
        d="
            M  43.650,310.699
            L 122.872,139.478
            L 168.855,234.148
            Q 187.233,274.428  215.625,246.875
            L 297.474,173.211
            L 303.132,371.613
            L 356.130,323.553
            L 350.000,115.625
            C 349.200, 88.489  324.500, 81.844  303.125,100.000
            L 209.375,187.500
            L 146.875, 65.625
            C 134.400, 41.300  108.400, 46.507   98.108, 68.750
            L  33.000,301.000
            Z
        "
        fill="#1eddff"
    />
    <path
        id="white-m"
        d="
            M   9.270,260.742
            A 200.000,200.000    0.000,  0,0     31.145,307.574
            L 115.625,125.000
            L 168.750,234.375
            Q 182.138,261.939  203.125,243.750
            L 296.875,159.375
            L 303.132,371.613
            A 200.000,200.000    0.000,  0,0    343.995,339.058
            L 337.500,118.750
            C 336.770, 94.000  317.300, 87.910  303.125,100.000
            L 196.875,190.625
            L 134.375, 68.750
            C 124.300, 49.104  106.500, 50.614   98.108, 68.750
            Z
        "
        fill="#fff"
    />
</svg>
